HIERARCHY
ROOT Hips
{
	OFFSET 0.00000 0.00000 0.00000
	CHANNELS 6 Xposition Yposition Zposition Yrotation Zrotation Xrotation 
	JOINT Lumbar
	{
		OFFSET 0 0 0
		CHANNELS 3 Zrotation Xrotation Yrotation
		JOINT Neck
		{
			OFFSET 0.00 0.2701 0.00
			CHANNELS 3 Zrotation Xrotation Yrotation
			End Site
			{
				OFFSET 0.00 0.1379 0.00
			}
		}
		JOINT RightShoulder
		{
			OFFSET 0.0119 0.2289 0.1181
			CHANNELS 3 Zrotation Xrotation Yrotation
			JOINT RightElbow
			{
				OFFSET 0.00 -0.1475 0.00
				CHANNELS 2 Zrotation Yrotation
				JOINT RightWrist
				{
					OFFSET 0.00 -0.1605 0.00
					CHANNELS 2 Zrotation Xrotation
					End Site
					{
						OFFSET 0.0040 -0.1068 0.0006
					}
				}
			}
		}
		JOINT LeftShoulder
		{
			OFFSET 0.0119 0.2289 -0.1181
			CHANNELS 3 Zrotation Xrotation Yrotation
			JOINT LeftElbow
			{
				OFFSET 0.00 -0.1475 0.00
				CHANNELS 2 Zrotation Yrotation
				JOINT LeftWrist
				{
					OFFSET 0.00 -0.1605 0.00
					CHANNELS 2 Zrotation Xrotation
					End Site
					{
						OFFSET 0.0040 -0.1068 -0.0006
					}
				}
			}
		}
	}
	JOINT RightHip
	{
		OFFSET 0.0316 -0.0424 0.0458
		CHANNELS 3 Zrotation Xrotation Yrotation
		JOINT RightKnee
		{
			OFFSET 0.00 -0.2438 0.00
			CHANNELS 1 Zrotation
			JOINT RightAnkle
			{
				OFFSET 0.00 -0.2449 0.00
				CHANNELS 3 Zrotation Xrotation Yrotation
				End Site
				{
					OFFSET 0.1237 -0.0542 0.0051
				}
			}
		}
	}
	JOINT LeftHip
	{
		OFFSET 0.0316 -0.0424 -0.0458
		CHANNELS 3 Zrotation Xrotation Yrotation
		JOINT LeftKnee
		{
			OFFSET 0.00 -0.2438 0.00
			CHANNELS 1 Zrotation
			JOINT LeftAnkle
			{
				OFFSET 0.00 -0.2449 0.00
				CHANNELS 3 Zrotation Xrotation Yrotation
				End Site
				{
					OFFSET 0.1237 -0.0542 -0.0051
				}
			}
		}
	}
}
MOTION
Frames: 25
Frame Time: 0.02
0.06123 0.0496 0.00922 173.56688 0 -9.4069 -19.97567 14.33776 13.27618 43.50076 -16.06185 6.3215 0.13004 11.4018 35.71726 26.7733 84.34043 -1.09644 -8.99698 -17.64899 9.71646 -60.78286 85.5281 -107.55129 34.02697 0.51785 80.82406 11.31465 -9.1014 4.7831 -23.94768 -0.26059 -10.34848 129.34074 -8.68784 37.97766 -117.94098 -3.47362 2.30528 19.11038
0.06125 0.04955 0.00924 173.57101 0 -9.41136 -19.9461 14.30227 13.12991 43.58951 -16.02574 6.48942 0.05693 11.40184 35.71826 26.75907 84.16921 -1.31485 -9.10658 -17.65238 9.73841 -60.78355 85.51911 -108.09528 34.03457 0.45517 80.83639 11.30747 -9.1279 4.76613 -23.90491 -0.09915 -10.33353 129.4561 -8.82926 37.90148 -117.93283 -3.46017 2.05991 19.38148
0.06126 0.04951 0.00925 173.56658 0 -9.41245 -19.92624 14.25887 12.98043 43.72939 -16.04248 6.71338 -0.05741 11.40185 35.93401 26.85409 83.99797 -1.67074 -9.24124 -17.69073 9.82155 -60.78372 85.54775 -108.56693 34.22602 0.41542 80.86769 11.30706 -9.19845 4.71567 -23.84788 0.08899 -10.2891 129.6384 -9.05856 37.77598 -117.92285 -3.41394 1.66367 19.82005
0.06128 0.04946 0.00927 173.56614 0 -9.41533 -19.90222 14.21934 12.83506 43.84505 -16.03532 6.90824 -0.15304 11.40183 36.04911 26.89716 83.83202 -1.954 -9.36043 -17.7162 9.87509 -60.7841 85.5613 -109.06693 34.32927 0.36504 80.88657 11.30357 -9.23604 4.68724 -23.80287 0.2561 -10.26934 129.77933 -9.23393 37.68092 -117.91386 -3.38581 1.35985 20.15608
0.06129 0.04941 0.00929 173.56559 0 -9.41729 -19.87746 14.17873 12.6797 43.96592 -16.02956 7.11913 -0.25066 11.40184 36.17555 26.94914 83.63582 -2.2752 -9.49883 -17.73218 9.9372 -60.78444 85.56812 -109.5858 34.44891 0.31518 80.91879 11.29982 -9.31992 4.635 -23.73669 0.46252 -10.20937 129.9633 -9.46472 37.55437 -117.90403 -3.34549 0.96255 20.59573
0.0613 0.04937 0.0093 173.56318 0 -9.42029 -19.85648 14.13848 12.5441 44.08761 -16.03272 7.30975 -0.35305 11.40184 36.32949 27.00873 83.5053 -2.55198 -9.60264 -17.77481 9.99554 -60.7848 85.59688 -110.04785 34.57906 0.26992 80.9297 11.29825 -9.32429 4.62066 -23.70894 0.5928 -10.22015 130.07548 -9.60334 37.48025 -117.89561 -3.32204 0.71979 20.86412
0.06128 0.04936 0.00929 173.55698 0 -9.42719 -19.84289 14.10098 12.46192 44.19976 -16.04748 7.42948 -0.45929 11.40184 36.51295 27.06362 83.56083 -2.67146 -9.60178 -17.88465 10.02923 -60.78534 85.68133 -110.37582 34.69648 0.23068 80.86507 11.30212 -9.05585 4.7429 -23.80921 0.50571 -10.47508 129.96395 -9.45347 37.56952 -117.89111 -3.35583 0.96008 20.59709
0.06124 0.04937 0.00927 173.54922 0 -9.43521 -19.83289 14.06415 12.40011 44.31062 -16.06921 7.52676 -0.5684 11.40184 36.71581 27.12233 83.68265 -2.74227 -9.56547 -18.01919 10.05671 -60.78595 85.78557 -110.64815 34.81803 0.19554 80.78043 11.30786 -8.71269 4.90038 -23.94574 0.34129 -10.79561 129.77987 -9.2104 37.71174 -117.88823 -3.40706 1.35678 20.15672
0.06121 0.04937 0.00926 173.54264 0 -9.44252 -19.82162 14.02712 12.32979 44.42161 -16.08746 7.63535 -0.67552 11.40184 36.90616 27.17881 83.77247 -2.83682 -9.54709 -18.14068 10.08647 -60.78656 85.87773 -110.94287 34.93609 0.15926 80.71358 11.31204 -8.43452 5.02474 -24.05272 0.2119 -11.05622 129.63539 -9.01864 37.82523 -117.88487 -3.44844 1.66824 19.81082
0.06118 0.04936 0.00924 173.53397 0 -9.45046 -19.80905 13.98936 12.25535 44.53669 -16.10863 7.74225 -0.78736 11.40184 37.11974 27.24128 83.87066 -2.92964 -9.52201 -18.27153 10.1208 -60.78702 85.98424 -111.24776 35.06733 0.12068 80.61227 11.31928 -8.03412 5.21698 -24.21185 0.08241 -11.4362 129.4654 -8.79244 37.95689 -117.88023 -3.49689 2.03396 19.40478
0.06115 0.04936 0.00923 173.52918 0 -9.45752 -19.80005 13.95339 12.19548 44.64179 -16.12504 7.84532 -0.88909 11.40184 37.28654 27.29064 83.96642 -3.01223 -9.50205 -18.38783 10.14316 -60.78781 86.06507 -111.51859 35.16971 0.08762 80.57572 11.32072 -7.86082 5.28065 -24.27435 -0.06367 -11.59202 129.33019 -8.61425 38.06372 -117.87883 -3.53508 2.32619 19.08022
0.0611 0.04937 0.00923 173.53733 0 -9.46085 -19.79861 13.92237 12.16132 44.72342 -16.12326 7.95423 -0.96544 11.40184 37.32042 27.30341 84.04653 -3.08244 -9.50544 -18.46135 10.13515 -60.78953 86.06988 -111.71458 35.19082 0.06832 80.7407 11.30388 -8.4144 4.94523 -24.03293 -0.25366 -11.03712 129.31066 -8.59519 38.09082 -117.88457 -3.54163 2.37386 19.02657
0.06104 0.04937 0.00923 173.54915 0 -9.46343 -19.80081 13.89316 12.14286 44.79405 -16.11687 8.05781 -1.0307 11.40184 37.30539 27.30226 84.12075 -3.1427 -9.51498 -18.51857 10.11482 -60.79158 86.04806 -111.87763 35.182 0.05439 80.96846 11.28142 -9.18554 4.48532 -23.69783 -0.45496 -10.26698 129.32796 -8.62659 38.09106 -117.89375 -3.53726 2.3435 19.05947
0.06099 0.04937 0.00923 173.55808 0 -9.46705 -19.80223 13.86305 12.12351 44.86703 -16.1144 8.15634 -1.09867 11.40184 37.31086 27.30653 84.19271 -3.20418 -9.52122 -18.58077 10.099 -60.79346 86.03832 -112.05239 35.18626 0.03822 81.15528 11.2627 -9.80109 4.10664 -23.42487 -0.63962 -9.64724 129.32679 -8.63193 38.10258 -117.90236 -3.53737 2.35185 19.04961
0.06092 0.04937 0.00925 173.57197 0 -9.46788 -19.80021 13.83324 12.07864 44.95129 -16.10421 8.28544 -1.17656 11.40184 37.32396 27.31466 84.28714 -3.2777 -9.52836 -18.65397 10.0874 -60.79539 86.02918 -112.23862 35.19275 0.02142 81.39243 11.23913 -10.64593 3.62781 -23.07271 -0.87416 -8.81455 129.33037 -8.64705 38.1196 -117.907 -3.53997 2.35199 19.04814
0.06089 0.04938 0.00923 173.5766 0 -9.47419 -19.80602 13.80329 12.0902 45.00933 -16.10927 8.35017 -1.23116 11.40184 37.30988 27.31159 84.33338 -3.32477 -9.53554 -18.70023 10.0644 -60.7973 86.01245 -112.39427 35.18773 0.00709 81.54165 11.22422 -11.07533 3.32413 -22.86006 -1.00818 -8.36496 129.33383 -8.65527 38.11838 -117.92048 -3.53471 2.34851 19.05214
0.06098 0.04939 0.00916 173.55323 0 -9.49712 -19.83391 13.77193 12.25498 44.99883 -16.15404 8.23631 -1.22363 11.40185 37.22713 27.27888 84.24141 -3.29825 -9.54154 -18.67442 10.01098 -60.79901 85.97899 -112.47018 35.15503 -0.00121 81.41726 11.23529 -10.22104 3.56469 -23.07949 -0.84681 -9.10031 129.3274 -8.63004 38.07068 -117.95964 -3.50895 2.3546 19.04976
0.06111 0.0494 0.00906 173.52068 0 -9.52538 -19.86931 13.74049 12.47543 44.96219 -16.21477 8.05857 -1.19314 11.40185 37.1196 27.23574 84.10298 -3.24639 -9.54746 -18.62223 9.94694 -60.80069 85.93911 -112.51729 35.11228 -0.0073 81.2049 11.25513 -8.95572 3.98055 -23.43829 -0.58616 -10.21566 129.32012 -8.59707 38.00571 -118.00719 -3.47576 2.35858 19.05114
0.06122 0.04941 0.00897 173.49333 0 -9.55037 -19.90035 13.70948 12.66975 44.93664 -16.27069 7.91137 -1.17346 11.40185 37.02707 27.19873 83.98859 -3.20816 -9.55353 -18.58303 9.88909 -60.8024 85.9036 -112.58019 35.07623 -0.01477 81.04338 11.27052 -7.93532 4.29555 -23.71692 -0.38067 -11.10636 129.3138 -8.5693 37.95023 -118.0495 -3.4469 2.36281 19.05141
0.06135 0.04942 0.00887 173.46178 0 -9.57888 -19.93543 13.67684 12.86908 44.91367 -16.31685 7.75677 -1.15174 11.40186 36.91734 27.15538 83.85781 -3.16005 -9.55952 -18.53899 9.825 -60.80404 85.86113 -112.63084 35.0303 -0.02055 80.83931 11.28772 -6.68269 4.6935 -24.06177 -0.13389 -12.20389 129.30589 -8.53567 37.88724 -118.09792 -3.41393 2.36862 19.05066
0.06144 0.04943 0.00879 173.43673 0 -9.60137 -19.96393 13.64758 13.06978 44.87971 -16.38628 7.60349 -1.12904 11.40186 36.83785 27.12291 83.75504 -3.12737 -9.56531 -18.49906 9.77162 -60.80581 85.83187 -112.70016 35.00273 -0.0293 80.70073 11.30324 -5.80627 4.96468 -24.30502 0.05144 -12.97 129.30111 -8.51233 37.83572 -118.13559 -3.38753 2.37011 19.05355
0.06145 0.04944 0.00878 173.43211 0 -9.60575 -19.97175 13.62746 13.27129 44.81799 -16.52414 7.46069 -1.10869 11.40186 36.85093 27.12317 83.69776 -3.13691 -9.57298 -18.47633 9.74971 -60.80818 85.8416 -112.83221 35.03024 -0.04747 80.77689 11.31246 -6.13047 4.81919 -24.21635 0.03588 -12.67293 129.30057 -8.51382 37.82406 -118.1412 -3.38463 2.37448 19.0497
0.06142 0.04946 0.00878 173.43428 0 -9.60394 -19.9728 13.61078 13.47033 44.74685 -16.68345 7.32297 -1.08832 11.40185 36.89497 27.13474 83.67707 -3.16388 -9.58005 -18.45886 9.73911 -60.81066 85.86478 -112.9834 35.07633 -0.06861 80.91962 11.31963 -6.83607 4.54467 -24.02399 -0.04372 -12.03954 129.30367 -8.5264 37.82413 -118.13574 -3.38817 2.37293 19.0512
0.06141 0.04948 0.00878 173.43315 0 -9.6051 -19.97743 13.59266 13.66331 44.68259 -16.82758 7.18885 -1.06836 11.40185 36.92315 27.14112 83.66967 -3.18755 -9.58565 -18.43941 9.72391 -60.81293 85.88131 -113.12337 35.11281 -0.08796 81.02314 11.32742 -7.32436 4.34599 -23.89132 -0.08921 -11.59858 129.30819 -8.53758 37.81617 -118.13556 -3.38628 2.36426 19.06114
0.0614 0.0495 0.00877 173.4326 0 -9.60579 -19.98026 13.57399 13.88803 44.60653 -16.99495 7.02802 -1.04582 11.40185 36.95807 27.14744 83.53968 -3.19184 -9.59824 -18.4172 9.7062 -60.81585 85.89993 -113.2732 35.15392 -0.10906 81.16048 11.33676 -7.97946 4.0826 -23.71174 -0.15182 -11.00775 129.30059 -8.53433 37.81826 -118.13465 -3.39398 2.39425 19.02835
